<mxfile host="Electron" agent="Mozilla/5.0 (Windows NT 10.0; Win64; x64) AppleWebKit/537.36 (KHTML, like Gecko) draw.io/25.0.2 Chrome/128.0.6613.186 Electron/32.2.5 Safari/537.36" version="25.0.2" pages="3">
  <diagram name="Cell States" id="ZcFQ1Z_AazcJsV3eHLGS">
    <mxGraphModel dx="493" dy="292" grid="1" gridSize="10" guides="1" tooltips="1" connect="1" arrows="1" fold="1" page="1" pageScale="1" pageWidth="827" pageHeight="1169" math="0" shadow="0">
      <root>
        <mxCell id="0" />
        <mxCell id="1" parent="0" />
        <mxCell id="NVoJzvXqEBRH4x5hHfq--1" value="Alive" style="ellipse;whiteSpace=wrap;html=1;aspect=fixed;" vertex="1" parent="1">
          <mxGeometry x="200" y="240" width="80" height="80" as="geometry" />
        </mxCell>
        <mxCell id="NVoJzvXqEBRH4x5hHfq--2" value="Dead" style="ellipse;whiteSpace=wrap;html=1;aspect=fixed;" vertex="1" parent="1">
          <mxGeometry x="390" y="240" width="80" height="80" as="geometry" />
        </mxCell>
        <mxCell id="NVoJzvXqEBRH4x5hHfq--5" value="k&amp;lt;2,k&amp;gt;3" style="text;html=1;align=center;verticalAlign=middle;whiteSpace=wrap;rounded=0;" vertex="1" parent="1">
          <mxGeometry x="290" y="190" width="60" height="30" as="geometry" />
        </mxCell>
        <mxCell id="NVoJzvXqEBRH4x5hHfq--6" value="k=3" style="text;html=1;align=center;verticalAlign=middle;whiteSpace=wrap;rounded=0;" vertex="1" parent="1">
          <mxGeometry x="310.0000000000001" y="310" width="60" height="30" as="geometry" />
        </mxCell>
        <mxCell id="NVoJzvXqEBRH4x5hHfq--9" value="" style="curved=1;endArrow=classic;html=1;rounded=0;exitX=0.5;exitY=0;exitDx=0;exitDy=0;entryX=0.5;entryY=0;entryDx=0;entryDy=0;" edge="1" parent="1" source="NVoJzvXqEBRH4x5hHfq--1" target="NVoJzvXqEBRH4x5hHfq--2">
          <mxGeometry width="50" height="50" relative="1" as="geometry">
            <mxPoint x="320" y="300" as="sourcePoint" />
            <mxPoint x="370" y="250" as="targetPoint" />
            <Array as="points">
              <mxPoint x="290" y="230" />
              <mxPoint x="330" y="230" />
            </Array>
          </mxGeometry>
        </mxCell>
        <mxCell id="NVoJzvXqEBRH4x5hHfq--10" value="" style="curved=1;endArrow=classic;html=1;rounded=0;exitX=0.5;exitY=1;exitDx=0;exitDy=0;entryX=-0.039;entryY=0.542;entryDx=0;entryDy=0;entryPerimeter=0;" edge="1" parent="1" source="NVoJzvXqEBRH4x5hHfq--1" target="NVoJzvXqEBRH4x5hHfq--1">
          <mxGeometry width="50" height="50" relative="1" as="geometry">
            <mxPoint x="320" y="300" as="sourcePoint" />
            <mxPoint x="370" y="250" as="targetPoint" />
            <Array as="points">
              <mxPoint x="190" y="320" />
              <mxPoint x="130" y="290" />
              <mxPoint x="160" y="270" />
            </Array>
          </mxGeometry>
        </mxCell>
        <mxCell id="NVoJzvXqEBRH4x5hHfq--11" value="k=2,k=3" style="text;html=1;align=center;verticalAlign=middle;whiteSpace=wrap;rounded=0;" vertex="1" parent="1">
          <mxGeometry x="150" y="320" width="60" height="30" as="geometry" />
        </mxCell>
        <mxCell id="NVoJzvXqEBRH4x5hHfq--12" value="" style="curved=1;endArrow=classic;html=1;rounded=0;exitX=0.5;exitY=1;exitDx=0;exitDy=0;entryX=0.5;entryY=1;entryDx=0;entryDy=0;" edge="1" parent="1" source="NVoJzvXqEBRH4x5hHfq--2" target="NVoJzvXqEBRH4x5hHfq--1">
          <mxGeometry width="50" height="50" relative="1" as="geometry">
            <mxPoint x="390" y="260" as="sourcePoint" />
            <mxPoint x="340" y="310" as="targetPoint" />
            <Array as="points">
              <mxPoint x="420" y="330" />
              <mxPoint x="400" y="340" />
              <mxPoint x="300" y="340" />
            </Array>
          </mxGeometry>
        </mxCell>
      </root>
    </mxGraphModel>
  </diagram>
  <diagram id="qEd6df9pkZnfJWd6WiZ1" name="App I/O">
    <mxGraphModel dx="716" dy="423" grid="1" gridSize="10" guides="1" tooltips="1" connect="1" arrows="1" fold="1" page="1" pageScale="1" pageWidth="827" pageHeight="1169" math="0" shadow="0">
      <root>
        <mxCell id="0" />
        <mxCell id="1" parent="0" />
        <mxCell id="jzwzFBvVTIgJMmqAKkIY-4" style="edgeStyle=orthogonalEdgeStyle;rounded=0;orthogonalLoop=1;jettySize=auto;html=1;entryX=0;entryY=0.5;entryDx=0;entryDy=0;" edge="1" parent="1" source="jzwzFBvVTIgJMmqAKkIY-1" target="jzwzFBvVTIgJMmqAKkIY-2">
          <mxGeometry relative="1" as="geometry" />
        </mxCell>
        <mxCell id="jzwzFBvVTIgJMmqAKkIY-1" value="config.json" style="whiteSpace=wrap;html=1;shape=mxgraph.basic.document" vertex="1" parent="1">
          <mxGeometry x="120" y="235" width="100" height="100" as="geometry" />
        </mxCell>
        <mxCell id="jzwzFBvVTIgJMmqAKkIY-2" value="«Script»&lt;br&gt;&lt;b&gt;main.py&lt;/b&gt;" style="html=1;dropTarget=0;whiteSpace=wrap;" vertex="1" parent="1">
          <mxGeometry x="260" y="240" width="180" height="90" as="geometry" />
        </mxCell>
        <mxCell id="jzwzFBvVTIgJMmqAKkIY-3" value="" style="shape=module;jettyWidth=8;jettyHeight=4;" vertex="1" parent="jzwzFBvVTIgJMmqAKkIY-2">
          <mxGeometry x="1" width="20" height="20" relative="1" as="geometry">
            <mxPoint x="-27" y="7" as="offset" />
          </mxGeometry>
        </mxCell>
        <mxCell id="jzwzFBvVTIgJMmqAKkIY-5" value="out.gif" style="whiteSpace=wrap;html=1;shape=mxgraph.basic.document" vertex="1" parent="1">
          <mxGeometry x="480" y="235" width="100" height="100" as="geometry" />
        </mxCell>
        <mxCell id="jzwzFBvVTIgJMmqAKkIY-6" style="edgeStyle=orthogonalEdgeStyle;rounded=0;orthogonalLoop=1;jettySize=auto;html=1;entryX=0;entryY=0.5;entryDx=0;entryDy=0;entryPerimeter=0;" edge="1" parent="1" source="jzwzFBvVTIgJMmqAKkIY-2" target="jzwzFBvVTIgJMmqAKkIY-5">
          <mxGeometry relative="1" as="geometry" />
        </mxCell>
      </root>
    </mxGraphModel>
  </diagram>
  <diagram id="_F14P4E21i1psIP8cxyM" name="Business Logic">
    <mxGraphModel dx="1730" dy="534" grid="1" gridSize="10" guides="1" tooltips="1" connect="1" arrows="1" fold="1" page="1" pageScale="1" pageWidth="827" pageHeight="1169" math="0" shadow="0">
      <root>
        <mxCell id="0" />
        <mxCell id="1" parent="0" />
        <mxCell id="VO2_sBWCZ5IYfNppd9JB-5" style="edgeStyle=orthogonalEdgeStyle;rounded=0;orthogonalLoop=1;jettySize=auto;html=1;" edge="1" parent="1" source="VO2_sBWCZ5IYfNppd9JB-1" target="VO2_sBWCZ5IYfNppd9JB-3">
          <mxGeometry relative="1" as="geometry" />
        </mxCell>
        <mxCell id="VO2_sBWCZ5IYfNppd9JB-1" value="" style="strokeWidth=2;html=1;shape=mxgraph.flowchart.start_2;whiteSpace=wrap;" vertex="1" parent="1">
          <mxGeometry x="320" y="120" width="25" height="25" as="geometry" />
        </mxCell>
        <mxCell id="VO2_sBWCZ5IYfNppd9JB-2" value="" style="ellipse;html=1;shape=endState;fillColor=#000000;strokeColor=#ff0000;" vertex="1" parent="1">
          <mxGeometry x="321.25" y="2460" width="30" height="30" as="geometry" />
        </mxCell>
        <mxCell id="VO2_sBWCZ5IYfNppd9JB-6" style="edgeStyle=orthogonalEdgeStyle;rounded=0;orthogonalLoop=1;jettySize=auto;html=1;entryX=0.5;entryY=0;entryDx=0;entryDy=0;" edge="1" parent="1" source="VO2_sBWCZ5IYfNppd9JB-3" target="VO2_sBWCZ5IYfNppd9JB-4">
          <mxGeometry relative="1" as="geometry" />
        </mxCell>
        <mxCell id="VO2_sBWCZ5IYfNppd9JB-3" value="Fetch user configs" style="rounded=1;whiteSpace=wrap;html=1;" vertex="1" parent="1">
          <mxGeometry x="272.5" y="200" width="120" height="60" as="geometry" />
        </mxCell>
        <mxCell id="VO2_sBWCZ5IYfNppd9JB-9" style="edgeStyle=orthogonalEdgeStyle;rounded=0;orthogonalLoop=1;jettySize=auto;html=1;" edge="1" parent="1" source="VO2_sBWCZ5IYfNppd9JB-4" target="VO2_sBWCZ5IYfNppd9JB-8">
          <mxGeometry relative="1" as="geometry" />
        </mxCell>
        <mxCell id="VO2_sBWCZ5IYfNppd9JB-13" value="True" style="edgeLabel;html=1;align=center;verticalAlign=middle;resizable=0;points=[];" vertex="1" connectable="0" parent="VO2_sBWCZ5IYfNppd9JB-9">
          <mxGeometry x="-0.0932" y="1" relative="1" as="geometry">
            <mxPoint as="offset" />
          </mxGeometry>
        </mxCell>
        <mxCell id="VO2_sBWCZ5IYfNppd9JB-11" style="edgeStyle=orthogonalEdgeStyle;rounded=0;orthogonalLoop=1;jettySize=auto;html=1;" edge="1" parent="1" source="VO2_sBWCZ5IYfNppd9JB-4" target="VO2_sBWCZ5IYfNppd9JB-10">
          <mxGeometry relative="1" as="geometry" />
        </mxCell>
        <mxCell id="VO2_sBWCZ5IYfNppd9JB-12" value="False" style="edgeLabel;html=1;align=center;verticalAlign=middle;resizable=0;points=[];" vertex="1" connectable="0" parent="VO2_sBWCZ5IYfNppd9JB-11">
          <mxGeometry x="0.5872" y="-1" relative="1" as="geometry">
            <mxPoint as="offset" />
          </mxGeometry>
        </mxCell>
        <mxCell id="VO2_sBWCZ5IYfNppd9JB-4" value="" style="rhombus;whiteSpace=wrap;html=1;" vertex="1" parent="1">
          <mxGeometry x="292.5" y="320" width="80" height="80" as="geometry" />
        </mxCell>
        <mxCell id="VO2_sBWCZ5IYfNppd9JB-7" value="random==0?" style="text;html=1;align=center;verticalAlign=middle;whiteSpace=wrap;rounded=0;" vertex="1" parent="1">
          <mxGeometry x="380" y="340" width="80" height="30" as="geometry" />
        </mxCell>
        <mxCell id="VO2_sBWCZ5IYfNppd9JB-15" style="edgeStyle=orthogonalEdgeStyle;rounded=0;orthogonalLoop=1;jettySize=auto;html=1;entryX=0.5;entryY=0;entryDx=0;entryDy=0;" edge="1" parent="1" source="VO2_sBWCZ5IYfNppd9JB-8" target="VO2_sBWCZ5IYfNppd9JB-14">
          <mxGeometry relative="1" as="geometry" />
        </mxCell>
        <mxCell id="VO2_sBWCZ5IYfNppd9JB-8" value="Use user defined map" style="rounded=1;whiteSpace=wrap;html=1;" vertex="1" parent="1">
          <mxGeometry x="268.75" y="470" width="127.5" height="60" as="geometry" />
        </mxCell>
        <mxCell id="VO2_sBWCZ5IYfNppd9JB-16" style="edgeStyle=orthogonalEdgeStyle;rounded=0;orthogonalLoop=1;jettySize=auto;html=1;entryX=0;entryY=0.5;entryDx=0;entryDy=0;" edge="1" parent="1" source="VO2_sBWCZ5IYfNppd9JB-10" target="VO2_sBWCZ5IYfNppd9JB-14">
          <mxGeometry relative="1" as="geometry">
            <Array as="points">
              <mxPoint x="160" y="650" />
            </Array>
          </mxGeometry>
        </mxCell>
        <mxCell id="VO2_sBWCZ5IYfNppd9JB-10" value="Generate random map" style="rounded=1;whiteSpace=wrap;html=1;" vertex="1" parent="1">
          <mxGeometry x="90" y="470" width="127.5" height="60" as="geometry" />
        </mxCell>
        <mxCell id="VO2_sBWCZ5IYfNppd9JB-18" style="edgeStyle=orthogonalEdgeStyle;rounded=0;orthogonalLoop=1;jettySize=auto;html=1;entryX=0.5;entryY=0;entryDx=0;entryDy=0;" edge="1" parent="1" source="VO2_sBWCZ5IYfNppd9JB-14" target="VO2_sBWCZ5IYfNppd9JB-17">
          <mxGeometry relative="1" as="geometry" />
        </mxCell>
        <mxCell id="VO2_sBWCZ5IYfNppd9JB-14" value="" style="rhombus;whiteSpace=wrap;html=1;" vertex="1" parent="1">
          <mxGeometry x="292.5" y="610" width="80" height="80" as="geometry" />
        </mxCell>
        <mxCell id="VO2_sBWCZ5IYfNppd9JB-20" style="edgeStyle=orthogonalEdgeStyle;rounded=0;orthogonalLoop=1;jettySize=auto;html=1;" edge="1" parent="1" source="VO2_sBWCZ5IYfNppd9JB-17" target="VO2_sBWCZ5IYfNppd9JB-19">
          <mxGeometry relative="1" as="geometry" />
        </mxCell>
        <mxCell id="VO2_sBWCZ5IYfNppd9JB-17" value="Prepare UI for animation" style="rounded=1;whiteSpace=wrap;html=1;" vertex="1" parent="1">
          <mxGeometry x="268.75" y="730" width="127.5" height="60" as="geometry" />
        </mxCell>
        <mxCell id="VO2_sBWCZ5IYfNppd9JB-70" style="edgeStyle=orthogonalEdgeStyle;rounded=0;orthogonalLoop=1;jettySize=auto;html=1;entryX=0.5;entryY=0;entryDx=0;entryDy=0;" edge="1" parent="1" source="VO2_sBWCZ5IYfNppd9JB-19" target="VO2_sBWCZ5IYfNppd9JB-23">
          <mxGeometry relative="1" as="geometry" />
        </mxCell>
        <mxCell id="VO2_sBWCZ5IYfNppd9JB-19" value="" style="rhombus;whiteSpace=wrap;html=1;" vertex="1" parent="1">
          <mxGeometry x="292.5" y="850" width="80" height="80" as="geometry" />
        </mxCell>
        <mxCell id="VO2_sBWCZ5IYfNppd9JB-71" style="edgeStyle=orthogonalEdgeStyle;rounded=0;orthogonalLoop=1;jettySize=auto;html=1;entryX=1;entryY=0.5;entryDx=0;entryDy=0;" edge="1" parent="1" source="VO2_sBWCZ5IYfNppd9JB-21" target="VO2_sBWCZ5IYfNppd9JB-19">
          <mxGeometry relative="1" as="geometry">
            <Array as="points">
              <mxPoint x="600" y="2250" />
              <mxPoint x="600" y="890" />
            </Array>
          </mxGeometry>
        </mxCell>
        <mxCell id="VO2_sBWCZ5IYfNppd9JB-72" value="False" style="edgeLabel;html=1;align=center;verticalAlign=middle;resizable=0;points=[];" vertex="1" connectable="0" parent="VO2_sBWCZ5IYfNppd9JB-71">
          <mxGeometry x="-0.3791" y="5" relative="1" as="geometry">
            <mxPoint x="-128" y="339" as="offset" />
          </mxGeometry>
        </mxCell>
        <mxCell id="VO2_sBWCZ5IYfNppd9JB-74" style="edgeStyle=orthogonalEdgeStyle;rounded=0;orthogonalLoop=1;jettySize=auto;html=1;" edge="1" parent="1" source="VO2_sBWCZ5IYfNppd9JB-21" target="VO2_sBWCZ5IYfNppd9JB-73">
          <mxGeometry relative="1" as="geometry" />
        </mxCell>
        <mxCell id="VO2_sBWCZ5IYfNppd9JB-21" value="" style="rhombus;whiteSpace=wrap;html=1;" vertex="1" parent="1">
          <mxGeometry x="296.25" y="2210" width="80" height="80" as="geometry" />
        </mxCell>
        <mxCell id="VO2_sBWCZ5IYfNppd9JB-22" value="Stepped through all interations?" style="text;html=1;align=center;verticalAlign=middle;whiteSpace=wrap;rounded=0;" vertex="1" parent="1">
          <mxGeometry x="180.25" y="2227.5" width="96" height="45" as="geometry" />
        </mxCell>
        <mxCell id="VO2_sBWCZ5IYfNppd9JB-25" style="edgeStyle=orthogonalEdgeStyle;rounded=0;orthogonalLoop=1;jettySize=auto;html=1;entryX=0.5;entryY=0;entryDx=0;entryDy=0;" edge="1" parent="1" source="VO2_sBWCZ5IYfNppd9JB-23" target="VO2_sBWCZ5IYfNppd9JB-24">
          <mxGeometry relative="1" as="geometry" />
        </mxCell>
        <mxCell id="VO2_sBWCZ5IYfNppd9JB-23" value="Get next map cell" style="rounded=1;whiteSpace=wrap;html=1;" vertex="1" parent="1">
          <mxGeometry x="272.5" y="980" width="120" height="60" as="geometry" />
        </mxCell>
        <mxCell id="VO2_sBWCZ5IYfNppd9JB-28" style="edgeStyle=orthogonalEdgeStyle;rounded=0;orthogonalLoop=1;jettySize=auto;html=1;entryX=0.5;entryY=0;entryDx=0;entryDy=0;" edge="1" parent="1" source="VO2_sBWCZ5IYfNppd9JB-24" target="VO2_sBWCZ5IYfNppd9JB-26">
          <mxGeometry relative="1" as="geometry" />
        </mxCell>
        <mxCell id="VO2_sBWCZ5IYfNppd9JB-24" value="Check cell neighbours" style="rounded=1;whiteSpace=wrap;html=1;" vertex="1" parent="1">
          <mxGeometry x="272.5" y="1100" width="120" height="60" as="geometry" />
        </mxCell>
        <mxCell id="VO2_sBWCZ5IYfNppd9JB-32" style="edgeStyle=orthogonalEdgeStyle;rounded=0;orthogonalLoop=1;jettySize=auto;html=1;entryX=0.5;entryY=0;entryDx=0;entryDy=0;" edge="1" parent="1" source="VO2_sBWCZ5IYfNppd9JB-26" target="VO2_sBWCZ5IYfNppd9JB-30">
          <mxGeometry relative="1" as="geometry" />
        </mxCell>
        <mxCell id="VO2_sBWCZ5IYfNppd9JB-33" value="True" style="edgeLabel;html=1;align=center;verticalAlign=middle;resizable=0;points=[];" vertex="1" connectable="0" parent="VO2_sBWCZ5IYfNppd9JB-32">
          <mxGeometry x="-0.2443" y="1" relative="1" as="geometry">
            <mxPoint as="offset" />
          </mxGeometry>
        </mxCell>
        <mxCell id="VO2_sBWCZ5IYfNppd9JB-54" style="edgeStyle=orthogonalEdgeStyle;rounded=0;orthogonalLoop=1;jettySize=auto;html=1;entryX=0.5;entryY=0;entryDx=0;entryDy=0;" edge="1" parent="1" source="VO2_sBWCZ5IYfNppd9JB-26" target="VO2_sBWCZ5IYfNppd9JB-53">
          <mxGeometry relative="1" as="geometry" />
        </mxCell>
        <mxCell id="VO2_sBWCZ5IYfNppd9JB-55" value="False" style="edgeLabel;html=1;align=center;verticalAlign=middle;resizable=0;points=[];" vertex="1" connectable="0" parent="VO2_sBWCZ5IYfNppd9JB-54">
          <mxGeometry x="-0.0447" y="1" relative="1" as="geometry">
            <mxPoint as="offset" />
          </mxGeometry>
        </mxCell>
        <mxCell id="VO2_sBWCZ5IYfNppd9JB-26" value="" style="rhombus;whiteSpace=wrap;html=1;" vertex="1" parent="1">
          <mxGeometry x="296.25" y="1210" width="80" height="80" as="geometry" />
        </mxCell>
        <mxCell id="VO2_sBWCZ5IYfNppd9JB-29" value="Cell is alive?" style="text;html=1;align=center;verticalAlign=middle;whiteSpace=wrap;rounded=0;" vertex="1" parent="1">
          <mxGeometry x="384" y="1230" width="60" height="30" as="geometry" />
        </mxCell>
        <mxCell id="VO2_sBWCZ5IYfNppd9JB-35" style="edgeStyle=orthogonalEdgeStyle;rounded=0;orthogonalLoop=1;jettySize=auto;html=1;" edge="1" parent="1" source="VO2_sBWCZ5IYfNppd9JB-30" target="VO2_sBWCZ5IYfNppd9JB-34">
          <mxGeometry relative="1" as="geometry" />
        </mxCell>
        <mxCell id="VO2_sBWCZ5IYfNppd9JB-30" value="" style="rhombus;whiteSpace=wrap;html=1;" vertex="1" parent="1">
          <mxGeometry x="296.25" y="1360" width="80" height="80" as="geometry" />
        </mxCell>
        <mxCell id="VO2_sBWCZ5IYfNppd9JB-31" value="neighbour_num&amp;lt;=1 or neighbour_num &amp;gt;=4?" style="text;html=1;align=center;verticalAlign=middle;whiteSpace=wrap;rounded=0;" vertex="1" parent="1">
          <mxGeometry x="384" y="1360" width="166" height="60" as="geometry" />
        </mxCell>
        <mxCell id="VO2_sBWCZ5IYfNppd9JB-49" style="edgeStyle=orthogonalEdgeStyle;rounded=0;orthogonalLoop=1;jettySize=auto;html=1;entryX=0.5;entryY=0;entryDx=0;entryDy=0;" edge="1" parent="1" source="VO2_sBWCZ5IYfNppd9JB-34" target="VO2_sBWCZ5IYfNppd9JB-36">
          <mxGeometry relative="1" as="geometry" />
        </mxCell>
        <mxCell id="VO2_sBWCZ5IYfNppd9JB-34" value="Kill cell" style="rounded=1;whiteSpace=wrap;html=1;" vertex="1" parent="1">
          <mxGeometry x="276.25" y="1630" width="120" height="60" as="geometry" />
        </mxCell>
        <mxCell id="VO2_sBWCZ5IYfNppd9JB-52" style="edgeStyle=orthogonalEdgeStyle;rounded=0;orthogonalLoop=1;jettySize=auto;html=1;entryX=0.5;entryY=0;entryDx=0;entryDy=0;" edge="1" parent="1" source="VO2_sBWCZ5IYfNppd9JB-36" target="VO2_sBWCZ5IYfNppd9JB-51">
          <mxGeometry relative="1" as="geometry" />
        </mxCell>
        <mxCell id="VO2_sBWCZ5IYfNppd9JB-36" value="" style="rhombus;whiteSpace=wrap;html=1;" vertex="1" parent="1">
          <mxGeometry x="296.25" y="1860" width="80" height="80" as="geometry" />
        </mxCell>
        <mxCell id="VO2_sBWCZ5IYfNppd9JB-42" style="edgeStyle=orthogonalEdgeStyle;rounded=0;orthogonalLoop=1;jettySize=auto;html=1;entryX=0.5;entryY=0;entryDx=0;entryDy=0;" edge="1" parent="1" source="VO2_sBWCZ5IYfNppd9JB-37" target="VO2_sBWCZ5IYfNppd9JB-41">
          <mxGeometry relative="1" as="geometry" />
        </mxCell>
        <mxCell id="VO2_sBWCZ5IYfNppd9JB-46" value="True" style="edgeLabel;html=1;align=center;verticalAlign=middle;resizable=0;points=[];" vertex="1" connectable="0" parent="VO2_sBWCZ5IYfNppd9JB-42">
          <mxGeometry x="-0.1457" y="1" relative="1" as="geometry">
            <mxPoint as="offset" />
          </mxGeometry>
        </mxCell>
        <mxCell id="VO2_sBWCZ5IYfNppd9JB-45" style="edgeStyle=orthogonalEdgeStyle;rounded=0;orthogonalLoop=1;jettySize=auto;html=1;entryX=0;entryY=0.5;entryDx=0;entryDy=0;" edge="1" parent="1" source="VO2_sBWCZ5IYfNppd9JB-37" target="VO2_sBWCZ5IYfNppd9JB-38">
          <mxGeometry relative="1" as="geometry">
            <Array as="points">
              <mxPoint x="-40" y="1530" />
              <mxPoint x="-40" y="1780" />
            </Array>
          </mxGeometry>
        </mxCell>
        <mxCell id="VO2_sBWCZ5IYfNppd9JB-47" value="False" style="edgeLabel;html=1;align=center;verticalAlign=middle;resizable=0;points=[];" vertex="1" connectable="0" parent="VO2_sBWCZ5IYfNppd9JB-45">
          <mxGeometry x="-0.1194" y="-2" relative="1" as="geometry">
            <mxPoint as="offset" />
          </mxGeometry>
        </mxCell>
        <mxCell id="VO2_sBWCZ5IYfNppd9JB-37" value="" style="rhombus;whiteSpace=wrap;html=1;" vertex="1" parent="1">
          <mxGeometry x="50" y="1490" width="80" height="80" as="geometry" />
        </mxCell>
        <mxCell id="VO2_sBWCZ5IYfNppd9JB-48" style="edgeStyle=orthogonalEdgeStyle;rounded=0;orthogonalLoop=1;jettySize=auto;html=1;entryX=0;entryY=0.5;entryDx=0;entryDy=0;" edge="1" parent="1" source="VO2_sBWCZ5IYfNppd9JB-38" target="VO2_sBWCZ5IYfNppd9JB-36">
          <mxGeometry relative="1" as="geometry">
            <Array as="points">
              <mxPoint x="90" y="1900" />
            </Array>
          </mxGeometry>
        </mxCell>
        <mxCell id="VO2_sBWCZ5IYfNppd9JB-38" value="" style="rhombus;whiteSpace=wrap;html=1;" vertex="1" parent="1">
          <mxGeometry x="50" y="1740" width="80" height="80" as="geometry" />
        </mxCell>
        <mxCell id="VO2_sBWCZ5IYfNppd9JB-39" style="edgeStyle=orthogonalEdgeStyle;rounded=0;orthogonalLoop=1;jettySize=auto;html=1;entryX=0.5;entryY=0;entryDx=0;entryDy=0;entryPerimeter=0;" edge="1" parent="1" source="VO2_sBWCZ5IYfNppd9JB-30" target="VO2_sBWCZ5IYfNppd9JB-37">
          <mxGeometry relative="1" as="geometry" />
        </mxCell>
        <mxCell id="VO2_sBWCZ5IYfNppd9JB-40" value="neighbour_num==2 or neighbour_num==3?" style="text;html=1;align=center;verticalAlign=middle;whiteSpace=wrap;rounded=0;" vertex="1" parent="1">
          <mxGeometry x="122" y="1500" width="150.5" height="60" as="geometry" />
        </mxCell>
        <mxCell id="VO2_sBWCZ5IYfNppd9JB-44" style="edgeStyle=orthogonalEdgeStyle;rounded=0;orthogonalLoop=1;jettySize=auto;html=1;entryX=0.5;entryY=0;entryDx=0;entryDy=0;" edge="1" parent="1" source="VO2_sBWCZ5IYfNppd9JB-41" target="VO2_sBWCZ5IYfNppd9JB-38">
          <mxGeometry relative="1" as="geometry" />
        </mxCell>
        <mxCell id="VO2_sBWCZ5IYfNppd9JB-41" value="Keep cell alive" style="rounded=1;whiteSpace=wrap;html=1;" vertex="1" parent="1">
          <mxGeometry x="30" y="1630" width="120" height="60" as="geometry" />
        </mxCell>
        <mxCell id="VO2_sBWCZ5IYfNppd9JB-68" style="edgeStyle=orthogonalEdgeStyle;rounded=0;orthogonalLoop=1;jettySize=auto;html=1;" edge="1" parent="1" source="VO2_sBWCZ5IYfNppd9JB-51" target="VO2_sBWCZ5IYfNppd9JB-21">
          <mxGeometry relative="1" as="geometry" />
        </mxCell>
        <mxCell id="VO2_sBWCZ5IYfNppd9JB-51" value="" style="rhombus;whiteSpace=wrap;html=1;" vertex="1" parent="1">
          <mxGeometry x="296.25" y="2050" width="80" height="80" as="geometry" />
        </mxCell>
        <mxCell id="VO2_sBWCZ5IYfNppd9JB-60" style="edgeStyle=orthogonalEdgeStyle;rounded=0;orthogonalLoop=1;jettySize=auto;html=1;entryX=0.5;entryY=0;entryDx=0;entryDy=0;" edge="1" parent="1" source="VO2_sBWCZ5IYfNppd9JB-53" target="VO2_sBWCZ5IYfNppd9JB-58">
          <mxGeometry relative="1" as="geometry" />
        </mxCell>
        <mxCell id="VO2_sBWCZ5IYfNppd9JB-64" value="True" style="edgeLabel;html=1;align=center;verticalAlign=middle;resizable=0;points=[];" vertex="1" connectable="0" parent="VO2_sBWCZ5IYfNppd9JB-60">
          <mxGeometry x="-0.3111" y="4" relative="1" as="geometry">
            <mxPoint x="-4" as="offset" />
          </mxGeometry>
        </mxCell>
        <mxCell id="VO2_sBWCZ5IYfNppd9JB-62" style="edgeStyle=orthogonalEdgeStyle;rounded=0;orthogonalLoop=1;jettySize=auto;html=1;entryX=0;entryY=0.5;entryDx=0;entryDy=0;" edge="1" parent="1" source="VO2_sBWCZ5IYfNppd9JB-53" target="VO2_sBWCZ5IYfNppd9JB-57">
          <mxGeometry relative="1" as="geometry">
            <Array as="points">
              <mxPoint x="-400" y="1400" />
              <mxPoint x="-400" y="1650" />
            </Array>
          </mxGeometry>
        </mxCell>
        <mxCell id="VO2_sBWCZ5IYfNppd9JB-65" value="False" style="edgeLabel;html=1;align=center;verticalAlign=middle;resizable=0;points=[];" vertex="1" connectable="0" parent="VO2_sBWCZ5IYfNppd9JB-62">
          <mxGeometry x="-0.1723" y="2" relative="1" as="geometry">
            <mxPoint as="offset" />
          </mxGeometry>
        </mxCell>
        <mxCell id="VO2_sBWCZ5IYfNppd9JB-53" value="" style="rhombus;whiteSpace=wrap;html=1;" vertex="1" parent="1">
          <mxGeometry x="-300" y="1360" width="80" height="80" as="geometry" />
        </mxCell>
        <mxCell id="VO2_sBWCZ5IYfNppd9JB-56" value="neighbour_num==3?" style="text;html=1;align=center;verticalAlign=middle;whiteSpace=wrap;rounded=0;" vertex="1" parent="1">
          <mxGeometry x="-230" y="1370" width="170" height="40" as="geometry" />
        </mxCell>
        <mxCell id="VO2_sBWCZ5IYfNppd9JB-66" style="edgeStyle=orthogonalEdgeStyle;rounded=0;orthogonalLoop=1;jettySize=auto;html=1;entryX=0;entryY=0.5;entryDx=0;entryDy=0;" edge="1" parent="1" source="VO2_sBWCZ5IYfNppd9JB-57" target="VO2_sBWCZ5IYfNppd9JB-51">
          <mxGeometry relative="1" as="geometry">
            <Array as="points">
              <mxPoint x="-270" y="2090" />
            </Array>
          </mxGeometry>
        </mxCell>
        <mxCell id="VO2_sBWCZ5IYfNppd9JB-57" value="" style="rhombus;whiteSpace=wrap;html=1;" vertex="1" parent="1">
          <mxGeometry x="-300" y="1610" width="80" height="80" as="geometry" />
        </mxCell>
        <mxCell id="VO2_sBWCZ5IYfNppd9JB-61" style="edgeStyle=orthogonalEdgeStyle;rounded=0;orthogonalLoop=1;jettySize=auto;html=1;entryX=0.5;entryY=0;entryDx=0;entryDy=0;" edge="1" parent="1" source="VO2_sBWCZ5IYfNppd9JB-58" target="VO2_sBWCZ5IYfNppd9JB-57">
          <mxGeometry relative="1" as="geometry" />
        </mxCell>
        <mxCell id="VO2_sBWCZ5IYfNppd9JB-58" value="Spawn a new cell" style="rounded=1;whiteSpace=wrap;html=1;" vertex="1" parent="1">
          <mxGeometry x="-320" y="1500" width="120" height="60" as="geometry" />
        </mxCell>
        <mxCell id="VO2_sBWCZ5IYfNppd9JB-75" style="edgeStyle=orthogonalEdgeStyle;rounded=0;orthogonalLoop=1;jettySize=auto;html=1;entryX=0.5;entryY=0;entryDx=0;entryDy=0;" edge="1" parent="1" source="VO2_sBWCZ5IYfNppd9JB-73" target="VO2_sBWCZ5IYfNppd9JB-2">
          <mxGeometry relative="1" as="geometry" />
        </mxCell>
        <mxCell id="VO2_sBWCZ5IYfNppd9JB-73" value="Save animation" style="rounded=1;whiteSpace=wrap;html=1;" vertex="1" parent="1">
          <mxGeometry x="276.25" y="2360" width="120" height="60" as="geometry" />
        </mxCell>
      </root>
    </mxGraphModel>
  </diagram>
</mxfile>
